<?xml version="1.0" encoding="UTF-8" standalone="no"?>
<svg
   width="2314717.8"
   height="2339664.2"
   viewBox="0 0 2314717.8 2339664.2"
   version="1.1"
   xml:space="preserve"
   style="clip-rule:evenodd;fill-rule:evenodd;stroke-linecap:round;stroke-linejoin:round;stroke-miterlimit:1.5"
   id="svg172"
   xmlns="http://www.w3.org/2000/svg"
   xmlns:svg="http://www.w3.org/2000/svg"><defs
   id="defs172" />
    
    
    
    
    
    
    
    
    
    
    
    
    
    
    
    
    
    
    
    
    
    
    
    
    
    
    
    <g
   transform="matrix(6.0036,0,0,6.0036,-6555111.7,-248309.75)"
   id="g28">
        <path
   d="m 0,12.556 c 0,0.529 0.429,0.958 0.958,0.958 h 4.351 c 1.816,0 2.913,-1.01 2.913,-2.711 0,-1.672 -1.097,-2.654 -2.944,-2.654 H 0.958 C 0.429,8.149 0,8.578 0,9.107 Z M 5.076,3.533 c 1.53,0 2.483,-0.895 2.483,-2.307 0,-1.414 -0.895,-2.222 -2.539,-2.222 H 0.958 C 0.429,-0.996 0,-0.567 0,-0.038 v 2.613 c 0,0.529 0.429,0.958 0.958,0.958 z m -6.692,14.743 c -1.497,0 -2.362,0.013 -3.156,0.04 -0.576,0.02 -1.04,-0.467 -0.987,-1.041 0.076,-0.84 0.105,-1.743 0.105,-3.155 V -1.661 c 0,-1.118 -0.032,-2.082 -0.117,-3.061 -0.049,-0.572 0.416,-1.058 0.99,-1.035 0.778,0.03 1.471,0.03 3.137,0.03 h 7.557 c 4.674,0 7.416,2.25 7.416,6.058 0,1.76 -0.578,3.143 -1.675,4.125 -0.634,0.547 -1.154,0.836 -2.335,1.269 1.412,0.317 2.163,0.664 3,1.386 1.24,1.097 1.874,2.654 1.874,4.557 0,4.155 -2.941,6.608 -7.961,6.608 z"
   style="fill:#5f4526;fill-rule:nonzero"
   id="path28" />
    </g>
    <g
   transform="matrix(6.0036,0,0,6.0036,-6554955.6,-248260.33)"
   id="g29">
        <path
   d="m 0,-3.978 c 1.701,0 2.739,-1.038 2.739,-2.683 0,-1.616 -0.923,-2.452 -2.711,-2.452 h -3.571 c -0.529,0 -0.958,0.429 -0.958,0.958 v 3.219 c 0,0.529 0.429,0.958 0.958,0.958 z M 4.864,10.044 C 4.428,10.044 4.044,9.753 3.938,9.33 3.727,8.49 3.363,7.369 2.683,5.543 1.759,3.032 1.412,2.369 0.691,1.735 0.085,1.185 -0.637,0.955 -1.56,0.955 h -1.983 c -0.529,0 -0.958,0.429 -0.958,0.958 v 3.773 c 0,1.426 0.03,2.38 0.113,3.305 0.051,0.564 -0.386,1.053 -0.953,1.053 h -4.06 c -0.565,0 -1.006,-0.486 -0.953,-1.049 0.082,-0.866 0.112,-1.745 0.112,-3.278 V -9.806 c 0,-1.295 -0.031,-2.212 -0.114,-3.146 -0.051,-0.575 0.404,-1.07 0.981,-1.051 0.878,0.029 1.816,0.044 3.199,0.044 h 7.501 c 4.675,0 7.385,2.422 7.385,6.577 0,2.049 -0.575,3.665 -1.7,4.731 -0.321,0.295 -0.619,0.522 -0.976,0.723 -0.577,0.326 -0.695,1.105 -0.201,1.548 0.541,0.486 0.977,1.198 1.494,2.345 0.432,0.923 0.836,1.905 2.135,5.02 0.204,0.52 0.419,1.003 0.739,1.688 0.296,0.635 -0.164,1.371 -0.865,1.371 z"
   style="fill:#5f4526;fill-rule:nonzero"
   id="path29" />
    </g>
    <g
   transform="matrix(6.0036,0,0,6.0036,-6554777,-248339.04)"
   id="g30">
        <path
   d="m 0,22.3 c 0,0.559 -0.474,0.998 -1.031,0.955 -0.904,-0.071 -1.943,-0.1 -3.731,-0.1 h -9.086 c -1.492,0 -2.342,0.013 -3.123,0.039 -0.577,0.02 -1.04,-0.465 -0.988,-1.04 0.073,-0.824 0.101,-1.756 0.101,-3.124 V 3.277 c 0,-1.298 -0.031,-2.185 -0.114,-3.114 -0.052,-0.578 0.409,-1.071 0.989,-1.051 0.761,0.026 1.622,0.04 3.135,0.04 h 9.204 c 1.439,0 2.349,-0.032 3.267,-0.105 0.556,-0.045 1.029,0.398 1.029,0.955 V 3.29 c 0,0.562 -0.48,0.999 -1.04,0.955 C -2.304,4.172 -3.237,4.141 -4.644,4.141 h -6.545 c -0.529,0 -0.958,0.429 -0.958,0.958 v 2.326 c 0,0.53 0.429,0.959 0.958,0.959 h 5.274 c 1.479,0 2.226,-0.019 3.295,-0.107 0.557,-0.046 1.032,0.397 1.032,0.955 v 3.233 c 0,0.558 -0.473,1 -1.029,0.956 -0.92,-0.074 -1.836,-0.104 -3.298,-0.104 h -5.274 c -0.529,0 -0.958,0.429 -0.958,0.958 v 2.93 c 0,0.529 0.429,0.958 0.958,0.958 h 6.486 c 1.604,0 2.714,-0.032 3.681,-0.105 C -0.469,18.017 0,18.459 0,19.014 Z"
   style="fill:#5f4526;fill-rule:nonzero"
   id="path30" />
    </g>
    <g
   transform="matrix(6.0036,0,0,6.0036,-6554704.6,-248247.18)"
   id="g31">
        <path
   d="m 0,-8.295 -1.392,4.491 c -0.191,0.617 0.269,1.242 0.915,1.242 h 2.815 c 0.648,0 1.109,-0.629 0.914,-1.247 L 1.829,-8.301 C 1.545,-9.195 0.278,-9.191 0,-8.295 M 7.336,7.854 C 6.876,7.854 6.478,7.521 6.394,7.068 6.224,6.148 6.068,5.516 5.838,4.737 L 5.273,2.953 C 5.147,2.555 4.777,2.285 4.359,2.285 h -6.821 c -0.417,0 -0.787,0.27 -0.913,0.668 l -0.566,1.784 c -0.281,0.864 -0.465,1.582 -0.6,2.335 -0.081,0.454 -0.478,0.782 -0.939,0.782 h -4.463 c -0.675,0 -1.14,-0.674 -0.894,-1.302 0.21,-0.534 0.452,-1.208 0.807,-2.219 l 6.232,-17.367 c 0.372,-1.012 0.611,-1.742 0.77,-2.382 0.106,-0.43 0.485,-0.733 0.929,-0.733 h 6.011 c 0.436,0 0.813,0.295 0.927,0.716 0.166,0.612 0.386,1.307 0.797,2.399 l 6.261,17.367 c 0.305,0.848 0.582,1.59 0.833,2.221 0.249,0.627 -0.219,1.3 -0.894,1.3 z"
   style="fill:#5f4526;fill-rule:nonzero"
   id="path31" />
    </g>
    <g
   transform="matrix(6.0036,0,0,6.0036,-6554563.4,-248313.8)"
   id="g32">
        <path
   d="m 0,13.9 c 1.877,0 3.204,-0.489 4.242,-1.527 1.182,-1.212 1.816,-3.145 1.816,-5.539 0,-2.452 -0.547,-4.243 -1.672,-5.368 -1.01,-1.01 -2.394,-1.47 -4.473,-1.47 h -2.819 c -0.529,0 -0.958,0.429 -0.958,0.958 v 11.988 c 0,0.529 0.429,0.958 0.958,0.958 z M -9.577,-0.899 c 0,-1.39 -0.03,-2.272 -0.119,-3.141 -0.059,-0.576 0.404,-1.07 0.983,-1.051 0.725,0.025 1.576,0.039 3.146,0.039 h 6.03 c 3.547,0 6.403,0.979 8.337,2.856 2.107,2.077 3.173,5.105 3.173,8.943 0,3.951 -1.153,7.125 -3.347,9.319 -1.931,1.903 -4.672,2.885 -8.107,2.885 h -6.086 c -1.502,0 -2.357,0.012 -3.127,0.039 -0.576,0.02 -1.041,-0.466 -0.989,-1.041 0.077,-0.842 0.106,-1.727 0.106,-3.123 z"
   style="fill:#5f4526;fill-rule:nonzero"
   id="path32" />
    </g>
    <g
   transform="matrix(6.0036,0,0,6.0036,-6555064.7,-248126.32)"
   id="g33">
        <path
   d="m 0,6.311 c -0.825,0 -1.336,0.01 -1.785,0.039 C -2.337,6.386 -2.802,5.948 -2.802,5.395 V 2.509 c 0,-0.554 0.467,-0.997 1.02,-0.956 0.65,0.048 1.389,0.061 2.688,0.061 H 3.169 C 4.162,1.614 4.967,1.6 5.778,1.554 6.359,1.522 6.832,2.006 6.788,2.587 6.732,3.306 6.709,4.121 6.709,5.32 v 3.171 c 0,1.696 0.019,2.606 0.127,3.631 0.038,0.362 -0.136,0.719 -0.446,0.909 -1.227,0.755 -1.955,1.085 -3.078,1.459 -1.842,0.625 -3.907,0.963 -6.001,0.963 -3.596,0 -6.396,-0.991 -8.405,-3.028 -2.153,-2.15 -3.342,-5.519 -3.342,-9.396 0,-7.444 4.501,-12.171 11.634,-12.171 3.537,0 6.227,1.104 8.093,3.368 0.545,0.625 0.932,1.234 1.273,2.025 0.235,0.544 -0.094,1.174 -0.671,1.307 L 2.009,-1.548 C 1.557,-1.443 1.103,-1.689 0.914,-2.113 0.664,-2.675 0.362,-3.05 -0.085,-3.396 -0.82,-3.991 -1.756,-4.274 -2.943,-4.274 c -3.623,0 -5.605,2.632 -5.605,7.386 0,2.634 0.595,4.672 1.726,5.916 0.906,0.991 2.293,1.528 4.077,1.528 1.297,0 2.384,-0.233 3.551,-0.754 C 1.145,9.65 1.357,9.301 1.357,8.93 V 6.311 Z"
   style="fill:#5f4526;fill-rule:nonzero"
   id="path33" />
    </g>
    <g
   transform="matrix(6.0036,0,0,6.0036,-6554955.7,-248083.36)"
   id="g34">
        <path
   d="M 0,-8.028 -1.342,-3.7 c -0.191,0.616 0.27,1.242 0.916,1.242 h 2.712 c 0.648,0 1.109,-0.63 0.914,-1.248 L 1.829,-8.034 C 1.545,-8.928 0.278,-8.924 0,-8.028 M 7.229,7.76 C 6.769,7.76 6.371,7.426 6.288,6.974 6.122,6.08 5.969,5.462 5.745,4.702 L 5.194,2.965 C 5.068,2.567 4.698,2.296 4.281,2.296 h -6.666 c -0.417,0 -0.787,0.271 -0.913,0.669 L -3.849,4.702 C -4.123,5.544 -4.303,6.244 -4.435,6.978 -4.516,7.432 -4.913,7.76 -5.374,7.76 h -4.337 c -0.675,0 -1.14,-0.673 -0.894,-1.301 0.204,-0.52 0.439,-1.176 0.782,-2.153 l 6.114,-17.038 c 0.362,-0.986 0.596,-1.699 0.751,-2.323 0.108,-0.431 0.487,-0.733 0.93,-0.733 h 5.864 c 0.432,0 0.815,0.285 0.928,0.702 0.163,0.601 0.38,1.282 0.783,2.354 l 6.142,17.038 c 0.295,0.821 0.564,1.541 0.807,2.154 0.25,0.628 -0.218,1.3 -0.893,1.3 z"
   style="fill:#5f4526;fill-rule:nonzero"
   id="path34" />
    </g>
    <g
   transform="matrix(6.0036,0,0,6.0036,-6554807.7,-248178.14)"
   id="g35">
        <path
   d="m 0,23.549 c -0.445,0 -0.835,-0.304 -0.932,-0.738 -0.182,-0.82 -0.501,-1.818 -1.081,-3.452 l -2.594,-7.5 C -4.614,11.84 -4.616,11.831 -4.622,11.811 -4.694,11.535 -5.498,9.051 -5.58,8.829 -5.891,7.811 -5.891,7.811 -6.032,7.414 c 0.168,1.784 0.283,4.105 0.283,5.605 v 6.142 c 0,1.396 0.029,2.43 0.107,3.34 0.048,0.562 -0.385,1.048 -0.949,1.048 h -3.439 c -0.566,0 -1.003,-0.487 -0.953,-1.051 0.081,-0.934 0.111,-1.943 0.111,-3.337 V 4.416 c 0,-1.249 -0.046,-2.39 -0.127,-3.391 C -11.044,0.469 -10.603,0 -10.045,0 h 5.619 c 0.459,0 0.849,0.326 0.94,0.776 0.179,0.889 0.428,1.76 0.934,3.214 l 3.339,9.591 c 0.299,0.859 1.514,0.857 1.811,-0.002 L 5.911,3.99 C 6.414,2.529 6.663,1.656 6.829,0.788 6.916,0.333 7.308,0 7.771,0 h 5.624 c 0.564,0 1.001,0.485 0.953,1.048 -0.084,0.972 -0.115,1.97 -0.115,3.368 v 14.745 c 0,1.508 0.028,2.502 0.103,3.352 0.049,0.559 -0.392,1.036 -0.954,1.036 H 9.953 c -0.56,0 -1.004,-0.478 -0.955,-1.036 0.082,-0.921 0.111,-1.889 0.111,-3.352 v -6.17 c 0,-0.679 0.086,-2.802 0.143,-3.68 0.086,-1.5 0.086,-1.5 0.113,-1.924 C 8.743,9.594 8.46,10.613 8.091,11.632 L 5.346,19.387 C 4.813,20.9 4.473,21.98 4.277,22.808 4.174,23.244 3.793,23.549 3.346,23.549 Z"
   style="fill:#5f4526;fill-rule:nonzero"
   id="path35" />
    </g>
    <g
   transform="matrix(6.0036,0,0,6.0036,-6554608.1,-248173.02)"
   id="g36">
        <path
   d="m 0,21.838 c 0,0.559 -0.474,0.998 -1.031,0.955 -0.883,-0.069 -1.9,-0.097 -3.64,-0.097 h -8.915 c -1.45,0 -2.282,0.013 -3.044,0.038 -0.576,0.02 -1.039,-0.465 -0.988,-1.04 0.071,-0.804 0.098,-1.714 0.098,-3.047 V 3.194 c 0,-1.263 -0.03,-2.131 -0.11,-3.036 -0.052,-0.577 0.408,-1.069 0.987,-1.049 0.742,0.025 1.585,0.038 3.057,0.038 h 9.03 c 1.401,0 2.292,-0.03 3.186,-0.101 0.555,-0.044 1.029,0.398 1.029,0.955 v 3.187 c 0,0.562 -0.481,0.998 -1.04,0.954 -0.893,-0.07 -1.805,-0.1 -3.175,-0.1 h -6.403 c -0.529,0 -0.958,0.429 -0.958,0.959 v 2.245 c 0,0.529 0.429,0.959 0.958,0.959 h 5.156 c 1.441,0 2.174,-0.018 3.213,-0.104 0.556,-0.045 1.032,0.398 1.032,0.956 v 3.133 c 0,0.557 -0.473,0.999 -1.029,0.955 -0.896,-0.071 -1.792,-0.101 -3.216,-0.101 h -5.156 c -0.529,0 -0.958,0.429 -0.958,0.958 v 2.838 c 0,0.53 0.429,0.959 0.958,0.959 h 6.345 c 1.563,0 2.648,-0.03 3.592,-0.1 C -0.469,17.657 0,18.099 0,18.654 Z"
   style="fill:#5f4526;fill-rule:nonzero"
   id="path36" />
    </g>
    <g
   transform="matrix(6.0036,0,0,6.0036,-6554578.1,-248132.68)"
   id="g37">
        <path
   d="m 0,8.405 c 0.488,-0.047 0.914,0.287 1.03,0.763 0.124,0.507 0.307,0.864 0.594,1.246 0.68,0.851 1.869,1.332 3.312,1.332 2.18,0 3.482,-0.963 3.482,-2.549 C 8.418,8.319 7.964,7.557 7.229,7.218 6.634,6.934 5.927,6.736 2.984,6.056 0.38,5.489 -0.526,5.151 -1.575,4.415 -3.356,3.169 -4.319,1.272 -4.319,-1.019 c 0,-4.36 3.509,-7.105 9.084,-7.105 3.596,0 6.34,1.104 7.871,3.226 0.527,0.696 0.849,1.345 1.132,2.298 0.168,0.568 -0.23,1.155 -0.82,1.219 L 8.861,-0.939 C 8.422,-0.891 8.009,-1.155 7.862,-1.572 7.398,-2.892 6.386,-3.453 4.54,-3.453 c -1.727,0 -3.001,0.934 -3.001,2.236 0,0.793 0.426,1.387 1.332,1.811 0.565,0.254 0.565,0.254 3.904,0.934 2.153,0.454 3.51,0.933 4.586,1.613 2.038,1.274 3.056,3.171 3.056,5.773 0,2.125 -0.677,3.936 -1.979,5.208 -1.644,1.586 -4.133,2.407 -7.444,2.407 -2.406,0 -4.785,-0.51 -6.313,-1.388 -1.415,-0.793 -2.461,-2.01 -3.056,-3.623 -0.195,-0.467 -0.324,-0.922 -0.45,-1.586 -0.105,-0.557 0.284,-1.09 0.848,-1.144 z"
   style="fill:#5f4526;fill-rule:nonzero"
   id="path37" />
    </g>
    
    
    
    
    
    
    
    
    
    
    
    
    
    
    
    
    
    
    
    
    
    
    
    
    
    
    
    
    
    
    
    
    
    
    
    
    
    
    
    
    
    
    
    
    
    
    
    
    
    
    
    
    
    
    
    
    
    
    
    
    
    
    
    
    
    
    
    
    
    
    
    
    
    
    
    
    
    
    
    
    
    
    
    
    
    
    
    <g
   transform="matrix(6.0036,0,0,6.0036,-6554662.9,-249021.49)"
   id="g125">
        <path
   d="m 0,95.929 c -11.668,-1.185 -22.956,-1.48 -34.486,-0.431 l -18.85,1.714 c -4.06,0.37 -7.979,0.326 -12.02,0.131 -8.047,-0.389 -13.756,-6.451 -14.014,-13.942 -0.571,-15.95 0.938,-18.868 4.034,-34.832 -4.309,-3.706 -6.382,-8.878 -5.974,-14.497 0.317,-4.369 2.402,-8.066 5.659,-11.248 3.596,-3.28 8.483,-4.553 12.251,-7.684 27.72,-17.015 31.566,-0.314 46.842,-0.28 8.179,0.018 19.93,-12.672 38.079,6.281 8.1,7.256 9.635,17.415 2.292,24.879 2.345,10.536 2.082,9.396 3.032,19.991 0.557,6.218 0.857,12.164 0.361,18.228 -1.495,9.218 -8.744,13.565 -18.26,12.598 z"
   style="fill:#5e4525;fill-rule:nonzero"
   id="path125" />
    </g>
    <g
   transform="matrix(6.0036,0,0,6.0036,-6555066,-248601.38)"
   id="g126">
        <path
   d="m 0,2.755 v 11.006 l 0.266,2.409 c 0.332,3.016 1.921,5.594 4.112,7.952 C -2.273,24.333 -7.883,20.057 -8.177,13.46 -8.884,-2.384 -7.438,-3.92 -4.453,-19.674 l 9.086,-1.904 c -2.282,9.894 -3.815,6.821 -4.285,16.883 z"
   style="fill:#c68c41;fill-rule:nonzero"
   id="path126" />
    </g>
    <g
   transform="matrix(6.0036,0,0,6.0036,-6555050.9,-248917.54)"
   id="g127">
        <path
   d="m 0,28.308 -7.305,0.465 C -13.757,24.743 -14.559,15.321 -9.764,9.582 -5.855,4.903 0.392,1.44 6.464,-0.465 4.166,1.614 1.791,3.299 -0.042,5.772 -2.264,8.771 -3.74,11.959 -4.034,15.561 -4.423,20.316 -3.07,24.521 0,28.308"
   style="fill:#c68d42;fill-rule:nonzero"
   id="path127" />
    </g>
    <g
   transform="matrix(0,-6.0036,-6.0036,0,-6555032.2,-248550.94)"
   id="g128">
        <path
   d="M -5.36,5.63 H 5.646 C 5.669,5.59 5.658,5.514 5.591,5.38 L -5.121,5.377 C -5.337,5.36 -5.399,5.523 -5.36,5.63"
   style="fill:#261f21;fill-rule:nonzero"
   id="path128" />
    </g>
    <g
   transform="matrix(6.0036,0,0,6.0036,-6554546,-248643.36)"
   id="g129">
        <path
   d="m 0,-22.759 c 3.418,14.307 4.906,28.947 4.102,43.625 -0.265,4.835 -3.958,8.405 -8.889,9.072 -1.923,0.26 -3.64,0.144 -5.556,-0.054 l -11.775,-1.219 -6.819,-0.481 c -9.009,-0.635 -17.844,-0.556 -26.832,0.499 l -14.544,1.708 c -5.839,0.685 -10.619,-2.329 -11.751,-8.032 l -0.316,-1.594 -0.042,-13.93 c 0.424,-11.558 2.054,-10.088 4.823,-21.345 0.307,-1.247 0.338,-2.267 -0.745,-3.176 -6.612,-5.547 -7.158,-14.794 -1.251,-21.059 6.792,-7.204 17.39,-15.09 26.312,-11.286 18.324,7.811 21.063,5.595 33.598,1.84 6.952,-2.083 16.038,5.102 20.915,10.687 2.304,2.639 3.214,5.706 3.104,9.093 -0.128,3.956 -1.498,7.782 -4.64,10.444"
   style="fill:#f6c67e;fill-rule:nonzero"
   id="path129" />
    </g>
    <g
   transform="matrix(1.21344,-0.333577,0.333577,1.21344,-6557206.4,-248767.99)"
   id="g130">
        <path
   d="m 1830.97,638.72 c -2.44,0.943 -5.31,0.312 -7.12,-1.78 -2.29,-2.659 -1.99,-6.676 0.67,-8.966 l 1.68,-1.059 1.87,-0.593 c 1.86,-0.405 6.31,-0.822 11.48,-0.444 5.9,0.431 12.69,1.933 17.75,5.193 4.16,2.687 7.27,6.481 8.5,11.606 1.22,5.099 -0.66,9.855 -4.68,13.812 -2.42,2.387 -5.78,4.448 -8.98,6.096 1.96,1.636 3.89,3.49 5.4,5.477 4.37,5.726 5.83,12.311 1.26,18.87 -3.33,4.778 -8.25,7.778 -13.09,9.533 -6.71,2.437 -13.11,2.436 -13.46,2.424 -4.79,-0.159 -9.53,-2.272 -13.48,-5.008 -4.81,-3.333 -8.35,-7.469 -8.87,-7.952 -2.57,-2.385 -2.73,-6.41 -0.34,-8.984 2.38,-2.574 6.41,-2.727 8.98,-0.343 0.45,0.41 3.38,3.995 7.47,6.824 1.98,1.373 4.26,2.676 6.67,2.756 0.22,0.008 4.35,-0.09 8.69,-1.668 2.55,-0.923 5.25,-2.34 7,-4.852 0.54,-0.788 0.41,-1.578 0.06,-2.309 -0.59,-1.23 -1.57,-2.365 -2.64,-3.431 -3.75,-3.744 -8.7,-6.544 -10.07,-7.609 -1.7,-1.306 -2.62,-3.377 -2.46,-5.509 0.16,-2.132 1.38,-4.041 3.25,-5.079 1.02,-0.564 8.52,-2.919 13.86,-6.773 0.98,-0.709 1.88,-1.462 2.54,-2.305 0.25,-0.329 0.62,-0.602 0.52,-1.001 -0.71,-2.993 -3.45,-4.439 -6.31,-5.451 -5.8,-2.056 -15.1,-1.541 -16.15,-1.475 z"
   style="fill:#5f4526"
   id="path130" />
    </g>
    <g
   transform="matrix(2.55452,0,0,3.37897,-6560035.5,-250900.82)"
   id="g131">
        <path
   d="m 2026.56,623.767 c 7.87,-11.213 23.61,-11.213 31.47,-5.607 7.88,5.607 7.88,16.82 0,28.034 -5.5,8.41 -19.67,16.82 -31.47,22.426 -11.8,-5.606 -25.97,-14.016 -31.48,-22.426 -7.86,-11.214 -7.86,-22.427 0,-28.034 7.87,-5.606 23.61,-5.606 31.48,5.607 z"
   style="fill:#5f4526"
   id="path131" />
    </g>
    <g
   transform="matrix(2.4206,0,0,3.20183,-6559557.9,-250788.04)"
   id="g132">
        <path
   d="m 2026.56,623.767 c 7.87,-11.213 23.61,-11.213 31.47,-5.607 7.88,5.607 7.88,16.82 0,28.034 -5.5,8.41 -19.67,16.82 -31.47,22.426 -11.8,-5.606 -25.97,-14.016 -31.48,-22.426 -7.86,-11.214 -7.86,-22.427 0,-28.034 7.87,-5.606 23.61,-5.606 31.48,5.607 z"
   style="fill:#5f4526"
   id="path132" />
    </g>
    
    
    
    
    
    
    
    
    
    
    
    
    
    
    
    
    
    
    
    
    
    
    
    
    
    
    
    
    
    
    
    
    
    
    
    
    
    
    
    
</svg>
